<?xml version="1.0" standalone="no"?>
<!DOCTYPE svg PUBLIC "-//W3C//DTD SVG 20010904//EN"
 "http://www.w3.org/TR/2001/REC-SVG-20010904/DTD/svg10.dtd">
<svg version="1.0" xmlns="http://www.w3.org/2000/svg"
 width="700.000000pt" height="700.000000pt" viewBox="0 0 700.000000 700.000000"
 preserveAspectRatio="xMidYMid meet">
<metadata>
Created by potrace 1.14, written by Peter Selinger 2001-2017
</metadata>
<g transform="translate(0.000000,700.000000) scale(0.100000,-0.100000)"
fill="#000000" stroke="none">
<path d="M170 6991 c-79 -25 -127 -70 -154 -143 -15 -39 -16 -298 -14 -3073
l3 -3030 22 -80 c72 -254 238 -458 466 -570 138 -68 225 -88 382 -88 155 0
242 20 380 86 228 110 395 315 467 572 l23 80 5 1404 5 1404 785 -798 c482
-489 800 -805 825 -818 29 -15 58 -21 105 -21 71 0 107 14 153 59 15 15 386
563 824 1218 l798 1190 5 -1824 5 -1824 23 -79 c88 -311 319 -543 627 -628 66
-18 106 -22 225 -21 128 0 155 3 233 26 159 49 284 125 393 238 106 112 173
231 216 384 l23 80 3 3134 2 3135 -232 -230 c-522 -514 -2381 -2319 -2392
-2322 -6 -1 -761 466 -1676 1039 -916 573 -1830 1145 -2032 1271 -340 213
-370 230 -420 233 -29 3 -64 1 -78 -4z"/>
</g>
</svg>
