<svg viewBox="0 0 24 24" fill="none" xmlns="http://www.w3.org/2000/svg">
    <path
        d="M23 12.08C23 13.1332 21.3099 13.9053 21.0027 14.8555C20.6843 15.8404 21.5888 17.461 20.9949 18.2808C20.395 19.109 18.5774 18.7424 17.7532 19.3449C16.9371 19.9415 16.7257 21.7947 15.7454 22.1146C14.7994 22.423 13.5484 21.0587 12.5 21.0587C11.4516 21.0587 10.2006 22.423 9.25465 22.1144C8.27427 21.7947 8.06289 19.9415 7.24678 19.3446C6.42264 18.742 4.60455 19.1087 4.00511 18.2806C3.41118 17.4607 4.31574 15.8402 3.9973 14.8553C3.69011 13.9053 2 13.1332 2 12.08C2 11.0268 3.69011 10.2547 3.9973 9.30447C4.31574 8.31958 3.41118 6.69904 4.00511 5.87919C4.60501 5.05103 6.42264 5.41756 7.24678 4.81514C8.06289 4.21849 8.27427 2.36528 9.25465 2.04538C10.2006 1.73701 11.4516 3.10135 12.5 3.10135C13.5484 3.10135 14.7994 1.73701 15.7454 2.04561C16.7257 2.36528 16.9371 4.21849 17.7532 4.81537C18.5774 5.41803 20.3954 5.05126 20.9949 5.87942C21.5888 6.69927 20.6843 8.31982 21.0027 9.3047C21.3099 10.2547 23 11.0268 23 12.08Z" />
    <path
        d="M12.5375 6.88501L9.51461 12.5753C9.48146 12.6378 9.465 12.7077 9.46681 12.7785C9.46862 12.8492 9.48865 12.9182 9.52495 12.9789C9.56125 13.0396 9.6126 13.0899 9.67402 13.1248C9.73544 13.1598 9.80484 13.1783 9.87551 13.1786H11.4645C11.5183 13.1786 11.5717 13.1892 11.6215 13.2098C11.6712 13.2304 11.7165 13.2606 11.7546 13.2987C11.7927 13.3368 11.8229 13.3821 11.8435 13.4319C11.8641 13.4817 11.8747 13.5351 11.8747 13.589V17.0075C11.8747 17.4301 12.4359 17.577 12.6425 17.2082L15.7985 11.5724C15.8334 11.5099 15.8514 11.4394 15.8507 11.3679C15.85 11.2963 15.8306 11.2262 15.7945 11.1644C15.7583 11.1027 15.7067 11.0514 15.6447 11.0158C15.5827 10.9802 15.5125 10.9614 15.441 10.9612L13.7185 10.9594C13.6098 10.9592 13.5057 10.9159 13.4289 10.8389C13.3521 10.762 13.3089 10.6577 13.3089 10.549V7.07787C13.3096 6.65011 12.738 6.5076 12.5375 6.88501Z"
        fill="white" />
</svg>