<svg xmlns="http://www.w3.org/2000/svg" xmlns:xlink="http://www.w3.org/1999/xlink" width="940" height="788" preserveAspectRatio="xMidYMid meet" version="1.0" viewBox="0 0 705 591" zoomAndPan="magnify"><defs><clipPath id="8f92f7040d"><path d="M 539 120 L 635.105469 120 L 635.105469 187 L 539 187 Z M 539 120" clip-rule="nonzero"/></clipPath><clipPath id="b8341be09c"><path d="M 318 552 L 366 552 L 366 576.597656 L 318 576.597656 Z M 318 552" clip-rule="nonzero"/></clipPath></defs><path fill="#caddff" fill-opacity="1" fill-rule="nonzero" d="M 439.878906 151.289062 C 391.996094 102.140625 405.707031 71.335938 372.9375 48.574219 C 322.523438 13.558594 228.429688 43.683594 172.917969 91.851562 C 104.925781 150.839844 69.847656 258.558594 109.808594 356 C 152.363281 459.777344 264.335938 513.644531 364.246094 497.410156 C 453.472656 482.914062 541.175781 411.195312 549.964844 325.179688 C 550.917969 315.855469 555.121094 265.457031 525.632812 222.003906 C 501.253906 186.089844 477.839844 190.253906 439.878906 151.289062"/><path fill="#5479f7" fill-opacity="1" fill-rule="nonzero" d="M 182.261719 413.683594 L 297.339844 533.015625 C 305.765625 541.761719 318.242188 543.402344 325.207031 536.679688 L 336.664062 525.621094 C 343.628906 518.902344 342.4375 506.371094 334.007812 497.628906 L 218.929688 378.292969 L 182.261719 413.683594"/><path fill="#000" fill-opacity="1" fill-rule="nonzero" d="M 540.558594 201.453125 C 555.136719 235.417969 550.125 270.183594 529.371094 279.09375 C 508.621094 288 479.980469 267.695312 465.40625 233.730469 C 450.832031 199.761719 455.839844 165.003906 476.59375 156.089844 C 497.347656 147.179688 525.988281 167.488281 540.558594 201.453125"/><path fill="#000" fill-opacity="1" fill-rule="nonzero" d="M 126.84375 346.691406 L 152.511719 406.507812 C 156.464844 415.722656 171.425781 418.140625 185.929688 411.910156 L 145.949219 318.738281 C 131.445312 324.964844 122.890625 337.480469 126.84375 346.691406"/><path fill="#fff" fill-opacity="1" fill-rule="nonzero" d="M 421.304688 85.019531 L 398.054688 95.007812 L 136.359375 322.851562 L 176.339844 416.03125 L 521.707031 383.183594 L 544.960938 373.199219 L 421.304688 85.019531"/><path fill="#000" fill-opacity="1" fill-rule="nonzero" d="M 137.542969 323.121094 L 176.960938 414.984375 L 521.460938 382.222656 L 543.671875 372.683594 L 420.789062 86.304688 L 398.578125 95.847656 Z M 176.339844 417.011719 C 175.953125 417.011719 175.597656 416.777344 175.441406 416.414062 L 135.457031 323.238281 C 135.289062 322.847656 135.394531 322.390625 135.714844 322.113281 L 397.410156 94.265625 C 397.484375 94.199219 397.574219 94.144531 397.667969 94.105469 L 420.917969 84.117188 C 421.414062 83.902344 421.992188 84.132812 422.203125 84.632812 L 545.859375 372.808594 C 546.074219 373.308594 545.847656 373.886719 545.351562 374.097656 L 522.097656 384.085938 C 522.003906 384.121094 521.902344 384.152344 521.800781 384.160156 L 176.433594 417.003906 C 176.402344 417.007812 176.371094 417.011719 176.339844 417.011719"/><path fill="#000" fill-opacity="1" fill-rule="nonzero" d="M 137.9375 323.214844 L 177.167969 414.636719 L 521.382812 381.902344 L 543.246094 372.511719 L 420.621094 86.738281 L 398.753906 96.125 Z M 176.339844 417.335938 C 175.824219 417.335938 175.347656 417.027344 175.140625 416.546875 L 135.15625 323.367188 C 134.933594 322.847656 135.074219 322.238281 135.5 321.867188 L 397.195312 94.019531 C 397.296875 93.929688 397.410156 93.855469 397.535156 93.804688 L 420.789062 83.820312 C 421.453125 83.53125 422.21875 83.839844 422.503906 84.503906 L 546.160156 372.683594 C 546.449219 373.347656 546.140625 374.113281 545.476562 374.398438 L 522.222656 384.382812 C 522.097656 384.4375 521.96875 384.472656 521.832031 384.484375 L 176.464844 417.332031 C 176.421875 417.332031 176.382812 417.335938 176.339844 417.335938"/><path fill="#5479f7" fill-opacity="1" fill-rule="nonzero" d="M 555.296875 384.28125 L 535.886719 392.617188 C 527.503906 396.214844 517.894531 391.625 515.375 382.855469 C 487.140625 284.660156 446.761719 190.277344 393.878906 99.8125 C 389.277344 91.945312 392.574219 81.835938 400.949219 78.238281 L 420.34375 69.910156 C 427.292969 66.925781 435.382812 69.527344 439.28125 76.007812 C 494.804688 168.292969 536.390625 265.078125 563.9375 366.402344 C 565.917969 373.679688 562.222656 381.308594 555.296875 384.28125"/><path fill="#fff" fill-opacity="1" fill-rule="nonzero" d="M 529.929688 387.835938 C 525.882812 387.835938 522.273438 385.105469 521.148438 381.191406 C 512.914062 352.554688 503.480469 323.78125 493.109375 295.671875 C 492.917969 295.164062 493.179688 294.601562 493.691406 294.414062 C 494.195312 294.226562 494.761719 294.484375 494.949219 294.996094 C 505.335938 323.148438 514.789062 351.96875 523.03125 380.648438 C 523.914062 383.726562 526.753906 385.878906 529.929688 385.878906 C 530.890625 385.878906 531.835938 385.679688 532.742188 385.292969 L 540.695312 381.875 C 541.191406 381.664062 541.765625 381.890625 541.984375 382.386719 C 542.199219 382.886719 541.964844 383.464844 541.46875 383.675781 L 533.515625 387.089844 C 532.363281 387.585938 531.15625 387.835938 529.929688 387.835938"/><path fill="#fff" fill-opacity="1" fill-rule="nonzero" d="M 488.195312 280.832031 C 487.800781 280.832031 487.429688 280.589844 487.277344 280.203125 C 482.074219 266.652344 476.546875 252.992188 470.855469 239.601562 C 470.640625 239.105469 470.871094 238.527344 471.371094 238.316406 C 471.871094 238.105469 472.445312 238.339844 472.65625 238.835938 C 478.359375 252.246094 483.894531 265.925781 489.109375 279.496094 C 489.304688 280.003906 489.050781 280.570312 488.546875 280.761719 C 488.429688 280.808594 488.3125 280.832031 488.195312 280.832031"/><path fill="#99b9ff" fill-opacity="1" fill-rule="nonzero" d="M 511.78125 156.570312 L 513.777344 121.933594 C 514.179688 115.019531 519.054688 109.179688 525.785156 107.554688 L 556.554688 100.125 L 511.78125 156.570312"/><g clip-path="url(#8f92f7040d)"><path fill="#99b9ff" fill-opacity="1" fill-rule="nonzero" d="M 597.699219 120.523438 L 587.285156 149.300781 L 580.839844 146.234375 C 572.832031 142.425781 563.257812 144.835938 558.007812 151.976562 L 539.488281 177.171875 L 553.726562 170.847656 C 562.042969 167.152344 571.792969 169.214844 577.894531 175.96875 L 583.089844 181.722656 C 588.6875 187.910156 598.421875 187.863281 603.957031 181.613281 L 635.082031 146.476562 L 597.699219 120.523438"/></g><path fill="#99b9ff" fill-opacity="1" fill-rule="nonzero" d="M 607.992188 218.824219 L 556.558594 200.824219 L 557.660156 203.835938 C 559.214844 208.089844 562.015625 211.773438 565.691406 214.414062 L 597.8125 237.492188 C 600.109375 239.140625 603.335938 238.433594 604.730469 235.96875 L 610.5625 225.660156 C 612.019531 223.082031 610.789062 219.804688 607.992188 218.824219"/><path fill="#caddff" fill-opacity="1" fill-rule="nonzero" d="M 247.046875 545.683594 C 257.003906 537.675781 261.375 525.976562 258.035156 517.011719 C 254.675781 507.980469 244.273438 503.835938 243.449219 503.519531 C 235.507812 500.476562 231.71875 503.667969 228.578125 500.460938 C 222.976562 494.738281 232.90625 482.390625 226.824219 474.304688 C 223.585938 470 217.164062 468.714844 212.988281 468.957031 C 205.289062 469.410156 202.589844 475.207031 199.042969 473.789062 C 194.167969 471.84375 198.488281 460.585938 191.730469 452.144531 C 187.542969 446.914062 179.65625 443.457031 173.222656 445.4375 C 162.472656 448.742188 158.242188 466.457031 163.519531 474.441406 C 167.230469 480.054688 173.816406 478.082031 177.835938 484.753906 C 181.773438 491.28125 177.175781 496.007812 180.824219 500.46875 C 186.175781 507.015625 198.660156 499.988281 205.019531 507.101562 C 208.734375 511.253906 205.597656 514.902344 209.222656 518.914062 C 215.183594 525.503906 226.390625 518.6875 235.742188 523.78125 C 240.269531 526.246094 245.105469 531.914062 247.046875 545.683594"/><path fill="#fff" fill-opacity="1" fill-rule="nonzero" d="M 246.484375 542.332031 C 246.605469 541.792969 246.742188 541.257812 246.816406 540.714844 L 247.148438 538.699219 C 247.199219 538.363281 247.269531 538.027344 247.308594 537.691406 L 247.625 534.65625 C 247.664062 533.3125 247.792969 531.957031 247.714844 530.617188 C 247.65625 525.261719 246.300781 519.902344 243.121094 515.71875 L 242.527344 514.9375 L 241.875 514.203125 C 241.460938 513.695312 240.957031 513.269531 240.5 512.800781 C 239.519531 511.929688 238.488281 511.097656 237.363281 510.386719 C 236.261719 509.644531 235.070312 509.019531 233.871094 508.40625 C 232.648438 507.824219 231.410156 507.269531 230.132812 506.769531 C 225.046875 504.761719 219.664062 503.210938 214.429688 501.136719 C 209.191406 499.101562 204.09375 496.46875 199.613281 492.980469 C 195.117188 489.519531 191.304688 485.226562 188.285156 480.484375 C 186.761719 478.113281 185.449219 475.621094 184.3125 473.054688 C 183.191406 470.484375 182.273438 467.832031 181.53125 465.136719 L 181.960938 465.003906 C 183.710938 470.265625 186.117188 475.304688 189.257812 479.832031 C 190.824219 482.097656 192.570312 484.234375 194.480469 486.203125 C 196.398438 488.160156 198.464844 489.964844 200.667969 491.582031 C 205.074219 494.832031 210.046875 497.207031 215.203125 499.117188 C 217.78125 500.078125 220.414062 500.929688 223.0625 501.769531 C 225.710938 502.617188 228.386719 503.457031 231.03125 504.472656 C 232.355469 504.96875 233.664062 505.539062 234.964844 506.140625 C 236.25 506.777344 237.535156 507.429688 238.753906 508.230469 C 239.988281 508.996094 241.148438 509.898438 242.257812 510.863281 C 242.78125 511.378906 243.34375 511.855469 243.824219 512.417969 L 244.566406 513.238281 L 245.246094 514.113281 C 245.71875 514.679688 246.097656 515.316406 246.507812 515.929688 C 246.910156 516.546875 247.234375 517.210938 247.59375 517.855469 C 247.898438 518.527344 248.207031 519.195312 248.488281 519.875 C 248.722656 520.570312 248.988281 521.257812 249.199219 521.957031 C 250.050781 524.765625 250.402344 527.675781 250.46875 530.550781 C 250.554688 531.992188 250.429688 533.417969 250.390625 534.855469 L 250.175781 536.988281 L 250.066406 538.050781 C 250.027344 538.40625 249.960938 538.757812 249.90625 539.109375 L 249.566406 541.214844 C 249.46875 541.921875 249.28125 542.605469 249.144531 543.304688 L 248.988281 544.011719 C 248.363281 544.585938 247.71875 545.144531 247.046875 545.683594 C 246.878906 544.507812 246.691406 543.394531 246.484375 542.332031"/><path fill="#99b9ff" fill-opacity="1" fill-rule="nonzero" d="M 241.226562 547.121094 C 242.003906 544.566406 244.019531 536.726562 240.359375 528.308594 C 239.714844 526.824219 235.089844 516.1875 226.6875 515.035156 C 219.589844 514.058594 216.035156 520.695312 211.792969 518.710938 C 206.363281 516.171875 209.886719 504.21875 203.496094 500.996094 C 200.230469 499.351562 196.042969 500.828125 194.65625 501.320312 C 191.253906 502.515625 190.878906 504.105469 186.359375 507.097656 C 185.582031 507.613281 177.40625 512.964844 175.542969 511.148438 C 174.175781 509.8125 177.847656 506.199219 176.382812 501.359375 C 176.25 500.917969 175.273438 497.859375 172.417969 496.359375 C 169.765625 494.96875 166.957031 495.699219 164.625 496.335938 C 158.113281 498.125 156.289062 501.78125 154.65625 501.042969 C 152.179688 499.921875 155.6875 491.183594 155.28125 479.09375 C 155.03125 471.640625 154.699219 461.78125 147.894531 456.816406 C 143.164062 453.363281 136.074219 452.847656 130.925781 455.449219 C 120.824219 460.5625 118.722656 477.421875 123.011719 487.9375 C 125.324219 493.609375 128.195312 494.242188 129.503906 500.390625 C 131.359375 509.113281 126.429688 511.824219 128.351562 518.132812 C 130.945312 526.648438 143.433594 533.210938 153.292969 531.722656 C 159.65625 530.757812 162.5 526.808594 165.175781 528.445312 C 169.539062 531.113281 163.8125 542.699219 168.9375 546.855469 C 172.949219 550.113281 180.96875 546.6875 182.53125 546.015625 C 190.53125 542.59375 192.820312 536.359375 195.625 537.289062 C 199.050781 538.421875 196.027344 547.878906 200.613281 550.933594 C 205.074219 553.902344 214.125 549.074219 221.988281 544.875 C 229.230469 541.011719 232.390625 537.988281 235.882812 539.246094 C 238.960938 540.351562 240.449219 544.117188 241.226562 547.121094"/><path fill="#000" fill-opacity="1" fill-rule="nonzero" d="M 242.433594 555.234375 C 243.65625 553.628906 243.808594 551.855469 243.78125 550.109375 C 243.789062 548.359375 243.710938 546.597656 243.492188 544.835938 C 243.269531 543.082031 242.96875 541.316406 242.433594 539.59375 C 241.90625 537.871094 241.214844 536.179688 240.289062 534.585938 C 239.335938 533.007812 238.148438 531.5625 236.773438 530.308594 C 235.375 529.085938 233.738281 528.054688 231.96875 527.429688 C 230.207031 526.769531 228.378906 526.46875 226.59375 526.335938 C 224.808594 526.203125 223.054688 526.226562 221.324219 526.304688 C 217.867188 526.480469 214.488281 526.816406 211.113281 527.035156 C 207.742188 527.261719 204.375 527.394531 201.011719 527.375 C 199.328125 527.367188 197.648438 527.320312 195.96875 527.242188 C 195.128906 527.203125 194.289062 527.140625 193.449219 527.09375 L 190.910156 526.910156 C 187.527344 526.660156 184.160156 526.378906 180.820312 525.9375 C 177.484375 525.5 174.175781 524.917969 170.925781 524.117188 C 167.671875 523.328125 164.507812 522.238281 161.46875 520.890625 C 155.386719 518.21875 149.917969 514.125 145.9375 508.789062 C 141.898438 503.492188 139.304688 497.148438 137.847656 490.585938 C 137.125 487.296875 136.65625 483.949219 136.425781 480.574219 C 136.179688 477.203125 136.160156 473.808594 136.332031 470.425781 C 136.34375 470.21875 136.183594 470.042969 135.980469 470.03125 C 135.777344 470.023438 135.601562 470.171875 135.585938 470.375 C 135.296875 473.78125 135.203125 477.210938 135.34375 480.636719 C 135.488281 484.058594 135.878906 487.480469 136.535156 490.859375 C 137.207031 494.234375 138.144531 497.570312 139.453125 500.777344 C 139.769531 501.585938 140.136719 502.371094 140.492188 503.160156 C 140.878906 503.9375 141.246094 504.722656 141.675781 505.476562 C 142.082031 506.242188 142.539062 506.980469 142.988281 507.726562 C 143.46875 508.453125 143.929688 509.195312 144.453125 509.890625 C 148.527344 515.558594 154.238281 519.996094 160.550781 522.898438 C 163.703125 524.367188 166.992188 525.527344 170.339844 526.390625 C 173.6875 527.265625 177.082031 527.90625 180.484375 528.398438 C 183.890625 528.886719 187.304688 529.230469 190.707031 529.507812 L 193.253906 529.710938 C 194.113281 529.769531 194.96875 529.839844 195.828125 529.882812 C 197.546875 529.980469 199.265625 530.042969 200.988281 530.0625 C 204.429688 530.109375 207.871094 530 211.289062 529.796875 C 214.707031 529.601562 218.105469 529.289062 221.449219 529.148438 C 223.117188 529.078125 224.769531 529.058594 226.375 529.183594 C 227.984375 529.308594 229.542969 529.582031 230.972656 530.121094 C 232.414062 530.640625 233.707031 531.457031 234.863281 532.472656 C 235.996094 533.519531 236.988281 534.71875 237.792969 536.0625 C 238.578125 537.417969 239.179688 538.894531 239.644531 540.425781 C 240.117188 541.957031 240.386719 543.5625 240.589844 545.179688 C 240.789062 546.796875 240.855469 548.445312 240.84375 550.097656 C 240.800781 551.753906 240.769531 553.386719 241.6875 555.167969 L 241.6875 555.171875 C 241.800781 555.386719 242.066406 555.472656 242.28125 555.359375 C 242.34375 555.332031 242.394531 555.285156 242.433594 555.234375"/><path fill="#99b9ff" fill-opacity="1" fill-rule="nonzero" d="M 295.839844 66.707031 L 130.613281 121.960938 C 122.644531 124.625 118.347656 133.246094 121.011719 141.214844 L 143.871094 209.632812 C 146.535156 217.601562 155.152344 221.902344 163.117188 219.238281 L 286.835938 177.863281 L 332.160156 193.519531 L 322.898438 165.804688 L 328.347656 163.984375 C 336.3125 161.320312 340.609375 152.703125 337.949219 144.730469 L 315.085938 76.3125 C 312.421875 68.34375 303.808594 64.042969 295.839844 66.707031"/><path fill="#000" fill-opacity="1" fill-rule="nonzero" d="M 165.941406 207.710938 C 158.292969 207.710938 151.472656 202.253906 150.03125 194.464844 L 136.875 123.539062 C 135.25 114.757812 141.0625 106.289062 149.839844 104.660156 L 321.132812 72.871094 C 325.382812 72.082031 329.6875 72.996094 333.253906 75.445312 C 336.816406 77.894531 339.214844 81.585938 340.003906 85.839844 L 353.15625 156.769531 C 353.945312 161.019531 353.03125 165.328125 350.582031 168.894531 C 348.136719 172.457031 344.445312 174.855469 340.191406 175.644531 L 335.511719 176.515625 L 340.660156 204.277344 C 340.726562 204.648438 340.582031 205.019531 340.28125 205.242188 C 339.980469 205.464844 339.582031 205.503906 339.25 205.332031 L 296.832031 183.695312 L 245.195312 193.277344 C 244.660156 193.375 244.152344 193.023438 244.054688 192.492188 C 243.953125 191.960938 244.304688 191.445312 244.839844 191.351562 L 296.800781 181.703125 C 297.011719 181.664062 297.234375 181.695312 297.425781 181.796875 L 338.367188 202.679688 L 333.40625 175.910156 C 333.304688 175.375 333.660156 174.863281 334.1875 174.765625 L 339.835938 173.71875 C 343.574219 173.023438 346.816406 170.917969 348.96875 167.785156 C 351.121094 164.648438 351.921875 160.867188 351.230469 157.128906 L 338.074219 86.195312 C 337.382812 82.460938 335.277344 79.214844 332.144531 77.0625 C 329.011719 74.90625 325.230469 74.105469 321.492188 74.796875 L 150.199219 106.589844 C 142.484375 108.019531 137.371094 115.464844 138.804688 123.179688 L 151.957031 194.109375 C 153.386719 201.824219 160.824219 206.9375 168.542969 205.507812 L 189.160156 201.679688 C 189.691406 201.585938 190.203125 201.9375 190.300781 202.46875 C 190.398438 203 190.046875 203.511719 189.515625 203.613281 L 168.898438 207.4375 C 167.90625 207.617188 166.917969 207.710938 165.941406 207.710938"/><path fill="#000" fill-opacity="1" fill-rule="nonzero" d="M 213.398438 199.488281 C 212.78125 199.488281 212.234375 199.046875 212.117188 198.421875 C 211.984375 197.710938 212.453125 197.023438 213.164062 196.894531 L 222.199219 195.21875 C 222.90625 195.089844 223.589844 195.554688 223.722656 196.265625 C 223.851562 196.976562 223.386719 197.65625 222.675781 197.789062 L 213.640625 199.464844 C 213.558594 199.480469 213.480469 199.488281 213.398438 199.488281"/><path fill="#99b9ff" fill-opacity="1" fill-rule="nonzero" d="M 446.28125 533.996094 L 596.371094 494.445312 C 603.609375 492.535156 607.929688 485.125 606.019531 477.882812 L 589.65625 415.734375 C 587.75 408.496094 580.335938 404.171875 573.101562 406.078125 L 460.71875 435.691406 L 421.332031 419.152344 L 427.957031 444.324219 L 423.015625 445.628906 C 415.777344 447.535156 411.457031 454.953125 413.363281 462.191406 L 429.726562 524.339844 C 431.628906 531.578125 439.042969 535.902344 446.28125 533.996094"/><path fill="#000" fill-opacity="1" fill-rule="nonzero" d="M 474.679688 429.117188 C 474.195312 429.117188 473.769531 428.75 473.710938 428.25 C 473.644531 427.710938 474.027344 427.226562 474.570312 427.160156 L 479.210938 426.609375 C 479.742188 426.546875 480.234375 426.929688 480.300781 427.464844 C 480.363281 428.003906 479.980469 428.496094 479.441406 428.554688 L 474.796875 429.109375 C 474.761719 429.113281 474.71875 429.117188 474.679688 429.117188"/><path fill="#000" fill-opacity="1" fill-rule="nonzero" d="M 550.90625 512.066406 C 550.417969 512.066406 549.996094 511.703125 549.933594 511.203125 C 549.875 510.664062 550.253906 510.175781 550.792969 510.113281 L 578.054688 506.867188 C 584.933594 506.050781 589.871094 499.78125 589.050781 492.898438 L 581.460938 429.082031 C 581.0625 425.742188 579.394531 422.761719 576.757812 420.683594 C 574.117188 418.609375 570.824219 417.679688 567.496094 418.078125 L 503.636719 425.679688 C 503.101562 425.738281 502.613281 425.359375 502.550781 424.820312 C 502.488281 424.28125 502.867188 423.792969 503.40625 423.726562 L 567.265625 416.132812 C 571.117188 415.671875 574.917969 416.742188 577.96875 419.144531 C 581.015625 421.546875 582.949219 424.992188 583.410156 428.847656 L 590.996094 492.667969 C 591.941406 500.625 586.238281 507.871094 578.285156 508.816406 L 551.023438 512.0625 C 550.984375 512.0625 550.949219 512.066406 550.90625 512.066406"/><path fill="#000" fill-opacity="1" fill-rule="nonzero" d="M 510.488281 516.875 C 510 516.875 509.578125 516.511719 509.515625 516.011719 C 509.453125 515.476562 509.835938 514.988281 510.375 514.921875 L 518.527344 513.953125 C 519.0625 513.886719 519.550781 514.273438 519.617188 514.8125 C 519.675781 515.347656 519.296875 515.835938 518.753906 515.898438 L 510.605469 516.871094 C 510.566406 516.875 510.527344 516.875 510.488281 516.875"/><path fill="#000" fill-opacity="1" fill-rule="nonzero" d="M 422.417969 527.257812 C 419.175781 527.257812 416.046875 526.179688 413.460938 524.144531 C 410.410156 521.742188 408.480469 518.292969 408.019531 514.4375 L 400.429688 450.621094 C 399.972656 446.761719 401.042969 442.960938 403.445312 439.910156 C 405.847656 436.863281 409.289062 434.929688 413.144531 434.46875 L 417.253906 433.980469 L 414.292969 409.105469 C 414.246094 408.734375 414.417969 408.371094 414.730469 408.167969 C 415.046875 407.964844 415.445312 407.957031 415.765625 408.148438 L 452.199219 429.820312 L 467.113281 428.046875 C 467.648438 427.984375 468.136719 428.367188 468.203125 428.90625 C 468.265625 429.445312 467.882812 429.933594 467.34375 429.996094 L 452.09375 431.808594 C 451.882812 431.835938 451.664062 431.789062 451.480469 431.679688 L 416.476562 410.851562 L 419.3125 434.722656 C 419.375 435.261719 418.988281 435.75 418.453125 435.8125 L 413.375 436.417969 C 410.042969 436.816406 407.0625 438.484375 404.984375 441.125 C 402.90625 443.761719 401.984375 447.054688 402.378906 450.386719 L 409.96875 514.207031 C 410.367188 517.542969 412.035156 520.523438 414.671875 522.601562 C 417.308594 524.679688 420.601562 525.605469 423.933594 525.207031 L 503.917969 515.691406 C 504.453125 515.628906 504.941406 516.011719 505.007812 516.546875 C 505.074219 517.085938 504.6875 517.574219 504.152344 517.636719 L 424.164062 527.15625 C 423.582031 527.222656 422.996094 527.257812 422.417969 527.257812"/><path fill="#000" fill-opacity="1" fill-rule="nonzero" d="M 319.726562 255.613281 C 312.671875 258.253906 313.828125 266.078125 308.273438 268.113281 C 303.074219 270.011719 299.722656 263.980469 289.582031 261.074219 C 287.21875 260.398438 276.828125 257.691406 266.84375 261.804688 C 256.351562 266.128906 245.703125 278.226562 247.476562 291.570312 C 249.132812 304.054688 260.742188 310.722656 262.390625 311.632812 C 279.160156 320.921875 299.082031 310.601562 309.152344 305.386719 C 320.925781 299.285156 326.855469 290.882812 333.589844 282.152344 C 339.820312 274.066406 348.011719 263.453125 344.632812 255.308594 C 343.683594 253.027344 341.324219 249.714844 338.375 249.488281 C 335.503906 249.269531 334.460938 252.144531 329.824219 254.109375 C 325.050781 256.128906 323.613281 254.160156 319.726562 255.613281"/><path fill="#000" fill-opacity="1" fill-rule="nonzero" d="M 318.886719 255.476562 C 319.378906 258.507812 317.324219 261.363281 314.296875 261.851562 C 311.265625 262.347656 308.414062 260.289062 307.917969 257.261719 C 307.429688 254.230469 309.484375 251.375 312.515625 250.882812 C 315.542969 250.390625 318.398438 252.449219 318.886719 255.476562"/><path fill="#5479f7" fill-opacity="1" fill-rule="nonzero" d="M 262.328125 538.101562 C 260.503906 541.808594 256.648438 550.046875 254.636719 558.40625 C 253.828125 561.78125 253.53125 564.285156 254.300781 567.015625 C 255.40625 570.949219 257.820312 572.195312 257.28125 573.3125 C 256.144531 575.652344 243.113281 575.078125 238.785156 567.953125 C 237.40625 565.675781 237.796875 564.1875 239.398438 550.453125 C 240.835938 538.121094 240.867188 536.355469 242.667969 534.871094 C 248.328125 530.203125 260.753906 537.195312 262.328125 538.101562"/><path fill="#000" fill-opacity="1" fill-rule="nonzero" d="M 247.808594 534.253906 C 246.070312 534.253906 244.488281 534.640625 243.289062 535.628906 C 242.019531 536.675781 241.832031 537.914062 240.75 547.289062 L 240.371094 550.570312 C 240.1875 552.152344 240.019531 553.574219 239.867188 554.851562 C 238.703125 564.640625 238.609375 565.773438 239.625 567.445312 C 242.09375 571.511719 247.902344 573.449219 252.5625 573.558594 C 254.886719 573.617188 256.082031 573.179688 256.359375 572.925781 C 256.277344 572.71875 255.980469 572.304688 255.734375 571.964844 C 255.039062 571 253.992188 569.539062 253.355469 567.285156 C 252.523438 564.308594 252.863281 561.59375 253.683594 558.175781 C 255.429688 550.917969 258.566406 543.609375 261.039062 538.507812 C 258.753906 537.273438 252.671875 534.253906 247.808594 534.253906 Z M 252.980469 575.527344 C 248.398438 575.527344 241.140625 573.71875 237.949219 568.460938 C 236.550781 566.160156 236.734375 564.621094 237.921875 554.621094 C 238.070312 553.34375 238.242188 551.921875 238.425781 550.339844 L 238.804688 547.066406 C 239.910156 537.441406 240.113281 535.707031 242.042969 534.117188 C 247.890625 529.292969 259.421875 535.296875 262.816406 537.253906 C 263.265625 537.511719 263.4375 538.070312 263.207031 538.535156 C 260.726562 543.570312 257.390625 551.140625 255.589844 558.636719 C 254.824219 561.828125 254.519531 564.179688 255.246094 566.75 C 255.785156 568.671875 256.675781 569.914062 257.328125 570.816406 C 258.019531 571.78125 258.671875 572.691406 258.164062 573.742188 C 257.523438 575.0625 255.402344 575.433594 253.734375 575.507812 C 253.492188 575.519531 253.242188 575.527344 252.980469 575.527344"/><path fill="#5479f7" fill-opacity="1" fill-rule="nonzero" d="M 243.484375 549.238281 C 243.484375 549.238281 237.742188 569.199219 251.429688 570.882812 L 243.484375 549.238281"/><path fill="#000" fill-opacity="1" fill-rule="nonzero" d="M 251.429688 571.863281 C 251.390625 571.863281 251.351562 571.859375 251.3125 571.855469 C 247.898438 571.4375 245.308594 569.921875 243.609375 567.351562 C 239.230469 560.730469 242.402344 549.445312 242.539062 548.96875 C 242.691406 548.449219 243.230469 548.144531 243.753906 548.296875 C 244.273438 548.445312 244.574219 548.988281 244.425781 549.507812 C 244.394531 549.617188 241.367188 560.40625 245.246094 566.269531 C 246.632812 568.367188 248.695312 569.558594 251.550781 569.910156 C 252.085938 569.976562 252.46875 570.464844 252.402344 571 C 252.34375 571.5 251.917969 571.863281 251.429688 571.863281"/><path fill="#5479f7" fill-opacity="1" fill-rule="nonzero" d="M 321.472656 553.515625 C 321.472656 553.515625 319.25 561.359375 319.9375 570.835938 C 320.066406 572.59375 321.457031 573.996094 323.214844 574.152344 C 330.375 574.785156 349.101562 576.222656 363.113281 575.363281 C 364.007812 575.308594 364.402344 574.21875 363.757812 573.597656 C 360.113281 570.125 351.207031 561.917969 344.84375 558.472656 C 336.660156 554.046875 321.472656 553.515625 321.472656 553.515625"/><g clip-path="url(#b8341be09c)"><path fill="#000" fill-opacity="1" fill-rule="nonzero" d="M 322.226562 554.535156 C 321.710938 556.691406 320.371094 563.242188 320.914062 570.765625 C 321.007812 572.046875 322.011719 573.058594 323.300781 573.175781 C 330.625 573.824219 349.164062 575.234375 363.054688 574.386719 L 363.082031 574.308594 C 359.546875 570.9375 350.652344 562.730469 344.375 559.335938 C 337.535156 555.636719 325.417969 554.714844 322.226562 554.535156 Z M 353.375 576.613281 C 341.460938 576.613281 328.867188 575.636719 323.128906 575.125 C 320.875 574.929688 319.121094 573.152344 318.960938 570.910156 C 318.269531 561.367188 320.4375 553.574219 320.53125 553.246094 C 320.652344 552.8125 321.0625 552.515625 321.507812 552.535156 C 322.136719 552.554688 337.019531 553.125 345.308594 557.609375 C 351.796875 561.121094 360.84375 569.464844 364.433594 572.890625 C 365.019531 573.449219 365.210938 574.269531 364.933594 575.03125 C 364.65625 575.789062 363.984375 576.292969 363.175781 576.34375 C 360.078125 576.53125 356.753906 576.613281 353.375 576.613281"/></g><path fill="#5479f7" fill-opacity="1" fill-rule="nonzero" d="M 323.839844 569.335938 C 323.839844 569.335938 353.644531 570.660156 354.308594 570.882812 L 323.839844 569.335938"/><path fill="#000" fill-opacity="1" fill-rule="nonzero" d="M 354.308594 571.863281 C 354.234375 571.863281 354.15625 571.851562 354.078125 571.835938 C 352.867188 571.65625 335.34375 570.828125 323.800781 570.316406 C 323.257812 570.292969 322.839844 569.835938 322.863281 569.292969 C 322.886719 568.753906 323.351562 568.335938 323.886719 568.355469 C 337.546875 568.964844 353.964844 569.734375 354.617188 569.953125 C 355.128906 570.125 355.410156 570.679688 355.238281 571.195312 C 355.101562 571.601562 354.71875 571.863281 354.308594 571.863281"/><path fill="#000" fill-opacity="1" fill-rule="nonzero" d="M 355.632812 365.152344 C 355.632812 365.152344 353.667969 504.832031 360.847656 556.769531 C 360.847656 556.769531 355.605469 570.613281 333.726562 563.238281 C 314.535156 556.769531 304.296875 561.851562 304.296875 561.851562 C 304.296875 561.851562 303.8125 471.894531 309.421875 439.09375 C 309.421875 439.09375 288.25 500.503906 272.375 550.675781 C 272.375 550.675781 238.707031 553.691406 213.761719 532.648438 C 213.761719 532.648438 225.054688 453.257812 316.28125 358.085938 L 355.632812 365.152344"/><path fill="#caddff" fill-opacity="1" fill-rule="nonzero" d="M 313.394531 429.847656 C 313.269531 429.847656 313.140625 429.824219 313.019531 429.773438 C 312.519531 429.566406 312.28125 428.992188 312.488281 428.492188 C 314.898438 422.65625 317.832031 415.976562 320.195312 410.609375 C 320.851562 409.117188 321.46875 407.707031 322.039062 406.40625 C 322.164062 406.121094 322.410156 405.914062 322.714844 405.84375 L 333.503906 403.3125 C 334.027344 403.1875 334.558594 403.515625 334.683594 404.042969 C 334.804688 404.570312 334.480469 405.097656 333.953125 405.21875 L 323.640625 407.640625 C 323.125 408.816406 322.570312 410.078125 321.988281 411.398438 C 319.632812 416.753906 316.703125 423.425781 314.300781 429.242188 C 314.140625 429.617188 313.777344 429.847656 313.394531 429.847656"/><path fill="#5479f7" fill-opacity="1" fill-rule="nonzero" d="M 428.96875 291.859375 C 424.964844 307.050781 414.761719 327.550781 397.980469 329.800781 C 386.957031 331.277344 374.257812 316.523438 366.839844 306.230469 C 362.539062 300.253906 355.570312 296.785156 348.210938 296.910156 L 306.023438 297.507812 C 302.292969 297.558594 299.28125 300.578125 299.242188 304.3125 L 298.953125 329.433594 L 294.785156 368.992188 C 313.835938 354.792969 336.289062 366.957031 347.394531 370.671875 C 358.503906 374.386719 365.207031 367.589844 365.207031 367.589844 L 363.152344 342.054688 C 363.152344 342.054688 367.46875 356.9375 396.09375 357.710938 C 431.027344 358.65625 436.558594 295.710938 436.558594 295.710938 L 428.96875 291.859375"/><path fill="#fff" fill-opacity="1" fill-rule="nonzero" d="M 434.910156 281.265625 L 443.335938 273.105469 C 443.921875 272.539062 444.828125 272.472656 445.488281 272.949219 C 446.238281 273.488281 446.414062 274.53125 445.878906 275.28125 L 443.210938 279.070312 L 445.359375 284.386719 C 446.023438 286.023438 445.59375 287.898438 444.285156 289.085938 L 440.824219 292.222656 C 439.09375 293.792969 436.574219 294.140625 434.484375 293.097656 L 433.074219 292.398438 C 430.910156 291.316406 429.664062 288.980469 429.980469 286.578125 L 430.347656 283.742188 C 430.582031 281.96875 432.261719 280.757812 434.019531 281.09375 L 434.910156 281.265625"/><path fill="#000" fill-opacity="1" fill-rule="nonzero" d="M 433.425781 282.015625 C 432.984375 282.015625 432.554688 282.15625 432.1875 282.421875 C 431.707031 282.769531 431.398438 283.285156 431.324219 283.875 L 430.953125 286.703125 C 430.691406 288.6875 431.71875 290.625 433.515625 291.519531 L 434.921875 292.21875 C 436.664062 293.085938 438.722656 292.804688 440.164062 291.496094 L 443.628906 288.359375 C 444.625 287.453125 444.957031 286.003906 444.449219 284.753906 L 442.300781 279.4375 C 442.175781 279.125 442.21875 278.777344 442.410156 278.503906 L 445.082031 274.714844 C 445.304688 274.40625 445.230469 273.96875 444.914062 273.742188 C 444.640625 273.542969 444.261719 273.574219 444.019531 273.808594 L 435.59375 281.96875 C 435.363281 282.191406 435.042969 282.285156 434.726562 282.226562 L 433.835938 282.054688 C 433.695312 282.027344 433.5625 282.015625 433.425781 282.015625 Z M 437.023438 294.679688 C 436.015625 294.679688 434.996094 294.449219 434.046875 293.976562 L 432.640625 293.273438 C 430.097656 292.007812 428.636719 289.265625 429.007812 286.449219 L 429.378906 283.617188 C 429.523438 282.503906 430.128906 281.488281 431.039062 280.832031 C 431.945312 280.175781 433.101562 279.917969 434.203125 280.128906 L 434.597656 280.203125 L 442.65625 272.398438 C 443.582031 271.503906 445.015625 271.398438 446.058594 272.152344 C 447.242188 273 447.519531 274.660156 446.683594 275.847656 L 444.320312 279.199219 L 446.265625 284.019531 C 447.082031 286.027344 446.546875 288.355469 444.941406 289.8125 L 441.484375 292.949219 C 440.226562 294.089844 438.636719 294.679688 437.023438 294.679688"/><path fill="#fff" fill-opacity="1" fill-rule="nonzero" d="M 434.910156 281.265625 L 438.0625 283.59375 C 438.0625 283.59375 437.015625 286.632812 434.910156 285.386719 L 434.910156 281.265625"/><path fill="#000" fill-opacity="1" fill-rule="nonzero" d="M 435.894531 286.671875 C 435.46875 286.671875 434.964844 286.558594 434.410156 286.230469 C 433.945312 285.957031 433.792969 285.355469 434.066406 284.886719 C 434.34375 284.421875 434.945312 284.265625 435.410156 284.542969 C 435.800781 284.773438 436 284.703125 436.070312 284.675781 C 436.359375 284.570312 436.628906 284.238281 436.828125 283.902344 L 434.328125 282.050781 C 433.890625 281.730469 433.800781 281.117188 434.125 280.679688 C 434.445312 280.246094 435.058594 280.15625 435.492188 280.476562 L 438.644531 282.804688 C 438.988281 283.058594 439.125 283.507812 438.988281 283.914062 C 438.917969 284.121094 438.246094 285.964844 436.75 286.515625 C 436.519531 286.601562 436.230469 286.671875 435.894531 286.671875"/><path fill="#fff" fill-opacity="1" fill-rule="nonzero" d="M 443.78125 280.496094 L 440.234375 284.898438 L 443.78125 280.496094"/><path fill="#000" fill-opacity="1" fill-rule="nonzero" d="M 440.234375 285.878906 C 440.019531 285.878906 439.800781 285.808594 439.617188 285.664062 C 439.199219 285.324219 439.128906 284.707031 439.46875 284.28125 L 443.015625 279.882812 C 443.359375 279.460938 443.972656 279.394531 444.394531 279.734375 C 444.816406 280.074219 444.886719 280.691406 444.542969 281.113281 L 440.996094 285.515625 C 440.800781 285.753906 440.519531 285.878906 440.234375 285.878906"/><path fill="#fff" fill-opacity="1" fill-rule="nonzero" d="M 444.863281 283.949219 L 442.007812 287.425781 L 444.863281 283.949219"/><path fill="#000" fill-opacity="1" fill-rule="nonzero" d="M 442.007812 288.40625 C 441.789062 288.40625 441.566406 288.332031 441.386719 288.183594 C 440.96875 287.835938 440.90625 287.222656 441.25 286.804688 L 444.109375 283.328125 C 444.453125 282.910156 445.066406 282.847656 445.488281 283.195312 C 445.90625 283.539062 445.964844 284.15625 445.621094 284.578125 L 442.765625 288.046875 C 442.570312 288.285156 442.289062 288.40625 442.007812 288.40625"/><path fill="#fff" fill-opacity="1" fill-rule="nonzero" d="M 335.980469 368.414062 L 302.953125 334.988281 C 302.109375 334.132812 300.742188 334.128906 299.890625 334.96875 L 256.207031 378.164062 C 255.359375 379.007812 255.351562 380.378906 256.191406 381.230469 L 289.222656 414.65625 C 290.0625 415.507812 291.433594 415.515625 292.285156 414.675781 L 335.964844 371.476562 C 336.816406 370.636719 336.824219 369.261719 335.980469 368.414062"/><path fill="#000" fill-opacity="1" fill-rule="nonzero" d="M 301.414062 335.324219 C 301.109375 335.324219 300.808594 335.4375 300.578125 335.664062 L 256.898438 378.863281 C 256.671875 379.085938 256.546875 379.382812 256.546875 379.699219 C 256.542969 380.015625 256.664062 380.316406 256.886719 380.539062 L 289.917969 413.964844 C 290.140625 414.191406 290.4375 414.320312 290.753906 414.320312 C 290.757812 414.320312 290.761719 414.320312 290.761719 414.320312 C 291.078125 414.320312 291.371094 414.199219 291.59375 413.976562 L 335.277344 370.777344 C 335.742188 370.320312 335.746094 369.566406 335.285156 369.101562 L 302.257812 335.675781 C 302.023438 335.441406 301.71875 335.324219 301.414062 335.324219 Z M 290.761719 416.28125 C 290.757812 416.28125 290.75 416.28125 290.746094 416.28125 C 289.902344 416.277344 289.113281 415.945312 288.523438 415.347656 L 255.492188 381.921875 C 254.902344 381.324219 254.582031 380.527344 254.585938 379.6875 C 254.589844 378.847656 254.921875 378.058594 255.519531 377.46875 L 299.199219 334.269531 C 300.433594 333.050781 302.429688 333.0625 303.648438 334.296875 L 336.679688 367.722656 C 337.902344 368.957031 337.890625 370.953125 336.652344 372.175781 L 292.976562 415.375 C 292.378906 415.960938 291.59375 416.28125 290.761719 416.28125"/><path fill="#caddff" fill-opacity="1" fill-rule="nonzero" d="M 291.042969 409.984375 L 260.882812 379.460938 C 260.539062 379.113281 260.542969 378.550781 260.890625 378.203125 L 300.980469 338.5625 C 301.328125 338.214844 301.890625 338.21875 302.234375 338.566406 L 332.394531 369.089844 C 332.742188 369.441406 332.738281 370.003906 332.386719 370.347656 L 292.300781 409.988281 C 291.953125 410.335938 291.390625 410.332031 291.042969 409.984375"/><path fill="#fff" fill-opacity="1" fill-rule="nonzero" d="M 328.761719 357.382812 L 313.894531 342.335938 C 312.867188 341.296875 311.191406 341.289062 310.152344 342.316406 L 306.710938 345.71875 L 325.296875 364.527344 L 328.742188 361.125 C 329.78125 360.097656 329.789062 358.421875 328.761719 357.382812"/><path fill="#fff" fill-opacity="1" fill-rule="nonzero" d="M 324.042969 347.175781 C 323.605469 346.734375 323.609375 346.023438 324.050781 345.585938 C 324.492188 345.152344 325.203125 345.15625 325.636719 345.59375 C 326.074219 346.039062 326.070312 346.746094 325.628906 347.1875 C 325.1875 347.621094 324.476562 347.617188 324.042969 347.175781 Z M 327.550781 343.707031 C 325.34375 341.472656 321.746094 341.453125 319.515625 343.660156 L 315.472656 347.65625 L 323.460938 355.742188 L 327.503906 351.746094 C 329.734375 349.539062 329.753906 345.9375 327.550781 343.707031"/><path fill="#fff" fill-opacity="1" fill-rule="nonzero" d="M 320.394531 372.804688 L 298.382812 350.527344 L 300.230469 348.703125 L 322.242188 370.976562 L 320.394531 372.804688"/><path fill="#fff" fill-opacity="1" fill-rule="nonzero" d="M 316.613281 376.546875 L 294.597656 354.269531 L 296.445312 352.445312 L 318.457031 374.71875 L 316.613281 376.546875"/><path fill="#fff" fill-opacity="1" fill-rule="nonzero" d="M 312.824219 380.292969 L 290.8125 358.011719 L 292.65625 356.1875 L 314.671875 378.464844 L 312.824219 380.292969"/><path fill="#fff" fill-opacity="1" fill-rule="nonzero" d="M 289.460938 391.683594 C 289.460938 391.683594 299.578125 403.097656 305.957031 401.496094 C 312.332031 399.898438 310.914062 395.292969 310.914062 395.292969 L 301.117188 390.066406 C 301.117188 390.066406 310.167969 391.320312 309.152344 388.234375 C 308.628906 386.652344 307.84375 386.730469 305.792969 386.699219 C 300.472656 386.613281 290.601562 386.070312 290.601562 386.070312 L 289.460938 391.683594"/><path fill="#000" fill-opacity="1" fill-rule="nonzero" d="M 290.515625 391.394531 C 293.5 394.644531 301.144531 401.691406 305.714844 400.546875 C 307.671875 400.058594 308.988281 399.230469 309.628906 398.09375 C 310.105469 397.246094 310.097656 396.402344 310.042969 395.9375 L 300.65625 390.929688 C 300.238281 390.707031 300.039062 390.214844 300.183594 389.765625 C 300.328125 389.308594 300.777344 389.027344 301.25 389.09375 C 304.824219 389.589844 308 389.285156 308.246094 388.707031 C 308.25 388.695312 308.25 388.644531 308.21875 388.542969 C 307.957031 387.742188 307.945312 387.707031 306.109375 387.683594 L 305.777344 387.679688 C 301.410156 387.609375 293.90625 387.226562 291.394531 387.09375 Z M 304.695312 402.628906 C 297.9375 402.628906 289.125 392.785156 288.726562 392.335938 C 288.519531 392.105469 288.4375 391.792969 288.5 391.488281 L 289.644531 385.875 C 289.738281 385.398438 290.167969 385.0625 290.65625 385.089844 C 290.757812 385.09375 300.566406 385.636719 305.808594 385.71875 L 306.132812 385.722656 C 307.941406 385.746094 309.371094 385.765625 310.082031 387.929688 C 310.332031 388.691406 310.210938 389.421875 309.738281 389.984375 C 308.972656 390.902344 307.253906 391.230469 305.511719 391.300781 L 311.375 394.429688 C 311.601562 394.550781 311.773438 394.757812 311.851562 395.003906 C 311.878906 395.085938 312.464844 397.058594 311.335938 399.058594 C 310.421875 400.683594 308.6875 401.824219 306.191406 402.449219 C 305.710938 402.570312 305.207031 402.628906 304.695312 402.628906"/><path fill="#fff" fill-opacity="1" fill-rule="nonzero" d="M 300.257812 397.105469 C 300.257812 397.105469 302.570312 399.046875 307.515625 400.988281 L 300.257812 397.105469"/><path fill="#000" fill-opacity="1" fill-rule="nonzero" d="M 307.515625 401.96875 C 307.394531 401.96875 307.277344 401.945312 307.160156 401.898438 C 302.121094 399.925781 299.726562 397.941406 299.625 397.859375 C 299.210938 397.507812 299.160156 396.890625 299.503906 396.476562 C 299.855469 396.0625 300.472656 396.007812 300.886719 396.355469 C 300.910156 396.375 303.167969 398.226562 307.875 400.074219 C 308.378906 400.273438 308.628906 400.84375 308.429688 401.347656 C 308.277344 401.734375 307.90625 401.96875 307.515625 401.96875"/><path fill="#fff" fill-opacity="1" fill-rule="nonzero" d="M 301.972656 394.9375 C 301.972656 394.9375 305.007812 396.957031 310.171875 399.046875 L 301.972656 394.9375"/><path fill="#000" fill-opacity="1" fill-rule="nonzero" d="M 310.171875 400.027344 C 310.050781 400.027344 309.925781 400.003906 309.804688 399.957031 C 304.605469 397.851562 301.554688 395.835938 301.425781 395.753906 C 300.976562 395.457031 300.855469 394.847656 301.15625 394.394531 C 301.453125 393.945312 302.0625 393.820312 302.511719 394.121094 C 302.542969 394.140625 305.539062 396.117188 310.539062 398.136719 C 311.042969 398.339844 311.285156 398.914062 311.082031 399.414062 C 310.925781 399.796875 310.558594 400.027344 310.171875 400.027344"/><path fill="#5479f7" fill-opacity="1" fill-rule="nonzero" d="M 305.609375 297.636719 C 299 297.75 292.777344 300.765625 288.578125 305.875 C 277.394531 319.476562 256.71875 347.117188 258.316406 363.855469 C 260.496094 386.714844 289.65625 394.183594 289.65625 394.183594 L 292.921875 384.296875 C 266.660156 361.054688 298.953125 329.433594 298.953125 329.433594 L 307.71875 297.601562 L 305.609375 297.636719"/><path fill="#fff" fill-opacity="1" fill-rule="nonzero" d="M 336.164062 259.824219 C 337.328125 260.789062 338.003906 261.058594 338.953125 261.976562 C 340.875 263.839844 342.558594 269.351562 345.796875 270.484375 C 346.144531 272.285156 344.703125 272.492188 344.160156 273.496094 C 344.5625 274.378906 345.226562 278.5 345.933594 281.023438 C 346.179688 281.902344 345.730469 282.839844 344.878906 283.183594 C 343.449219 283.765625 341.839844 284.144531 340.035156 284.273438 C 340.035156 284.273438 330.796875 294.800781 340.199219 302.035156 C 340.199219 302.035156 325.691406 299.136719 321.40625 298.71875 C 318.863281 298.46875 327.726562 280.507812 327.726562 280.507812 C 327.453125 280.410156 323.847656 279.027344 323.464844 276.039062 C 323.324219 274.945312 323.566406 273.199219 324.550781 272.832031 C 325.515625 272.464844 327.128906 273.433594 328.148438 275.496094 C 328.371094 275.007812 328.566406 274.375 328.765625 273.648438 C 329.039062 272.65625 329.242188 271.519531 328.957031 270.941406 C 337.953125 268.503906 329.867188 259.757812 336.164062 259.824219"/><path fill="#000" fill-opacity="1" fill-rule="nonzero" d="M 321.910156 297.785156 C 325.242188 298.167969 332.828125 299.597656 337.179688 300.445312 C 335.953125 298.867188 335.234375 297.097656 335.046875 295.160156 C 334.464844 289.207031 339.101562 283.851562 339.296875 283.628906 C 339.464844 283.433594 339.707031 283.316406 339.960938 283.296875 C 341.605469 283.175781 343.136719 282.832031 344.511719 282.273438 C 344.894531 282.121094 345.101562 281.695312 344.988281 281.285156 C 344.644531 280.058594 344.3125 278.472656 344.019531 277.074219 C 343.746094 275.757812 343.433594 274.265625 343.269531 273.902344 C 343.140625 273.621094 343.148438 273.296875 343.296875 273.027344 C 343.5625 272.535156 343.929688 272.21875 344.257812 271.929688 C 344.621094 271.613281 344.816406 271.441406 344.859375 271.148438 C 342.804688 270.105469 341.425781 267.707031 340.199219 265.574219 C 339.515625 264.386719 338.871094 263.265625 338.269531 262.683594 C 337.789062 262.21875 337.398438 261.949219 336.910156 261.605469 C 336.589844 261.382812 336.238281 261.136719 335.824219 260.8125 C 335.417969 260.835938 334.980469 260.917969 334.769531 261.144531 C 334.390625 261.539062 334.453125 262.589844 334.511719 263.703125 C 334.660156 266.210938 334.875 269.925781 330.074219 271.621094 C 330.085938 272.230469 329.964844 272.984375 329.710938 273.910156 C 329.53125 274.5625 329.3125 275.304688 329.039062 275.902344 C 328.882812 276.25 328.539062 276.472656 328.160156 276.480469 C 327.78125 276.488281 327.433594 276.269531 327.269531 275.929688 C 326.382812 274.132812 325.195312 273.632812 324.898438 273.746094 C 324.625 273.847656 324.304688 274.882812 324.441406 275.914062 C 324.746094 278.339844 327.933594 279.539062 328.070312 279.589844 C 328.328125 279.683594 328.535156 279.886719 328.640625 280.144531 C 328.742188 280.402344 328.730469 280.691406 328.605469 280.941406 C 325.265625 287.71875 321.898438 295.78125 321.910156 297.785156 Z M 340.199219 303.015625 C 340.136719 303.015625 340.070312 303.007812 340.003906 302.996094 C 339.859375 302.96875 325.5 300.101562 321.308594 299.691406 C 320.84375 299.648438 320.4375 299.382812 320.207031 298.96875 C 319.03125 296.847656 323.386719 287.171875 326.40625 280.988281 C 325.054688 280.285156 322.824219 278.753906 322.496094 276.164062 C 322.316406 274.78125 322.628906 272.507812 324.207031 271.910156 C 325.332031 271.488281 326.714844 272.0625 327.84375 273.308594 C 328.25 271.796875 328.078125 271.382812 328.078125 271.375 C 327.964844 271.113281 327.957031 270.796875 328.082031 270.539062 C 328.207031 270.28125 328.425781 270.070312 328.703125 269.996094 C 332.851562 268.871094 332.707031 266.417969 332.558594 263.816406 C 332.46875 262.265625 332.386719 260.800781 333.351562 259.789062 C 333.96875 259.140625 334.902344 258.835938 336.171875 258.84375 C 336.394531 258.847656 336.613281 258.925781 336.785156 259.070312 C 337.261719 259.460938 337.652344 259.734375 338.027344 259.996094 C 338.550781 260.359375 339.039062 260.699219 339.632812 261.273438 C 340.433594 262.050781 341.144531 263.285156 341.898438 264.597656 C 343.074219 266.640625 344.40625 268.960938 346.121094 269.558594 C 346.449219 269.675781 346.691406 269.957031 346.757812 270.300781 C 347.09375 272.050781 346.164062 272.863281 345.546875 273.40625 C 345.445312 273.5 345.34375 273.585938 345.257812 273.671875 C 345.441406 274.304688 345.648438 275.277344 345.9375 276.671875 C 346.226562 278.042969 346.550781 279.59375 346.878906 280.757812 C 347.257812 282.128906 346.558594 283.5625 345.25 284.09375 C 343.804688 284.679688 342.214844 285.054688 340.53125 285.21875 C 339.632812 286.355469 336.570312 290.597656 337 294.980469 C 337.238281 297.386719 338.511719 299.503906 340.796875 301.257812 C 341.15625 301.539062 341.277344 302.027344 341.09375 302.441406 C 340.929688 302.796875 340.578125 303.015625 340.199219 303.015625"/><path fill="#fff" fill-opacity="1" fill-rule="nonzero" d="M 332.621094 283.179688 C 332.621094 283.179688 335.699219 285.085938 339.742188 284.308594 L 332.621094 283.179688"/><path fill="#000" fill-opacity="1" fill-rule="nonzero" d="M 337.773438 285.476562 C 334.507812 285.476562 332.21875 284.085938 332.101562 284.011719 C 331.644531 283.726562 331.503906 283.125 331.789062 282.664062 C 332.070312 282.203125 332.675781 282.0625 333.132812 282.347656 C 333.195312 282.378906 335.980469 284.035156 339.554688 283.34375 C 340.089844 283.238281 340.601562 283.589844 340.703125 284.121094 C 340.804688 284.652344 340.457031 285.167969 339.925781 285.273438 C 339.175781 285.417969 338.449219 285.476562 337.773438 285.476562"/><path fill="#000" fill-opacity="1" fill-rule="nonzero" d="M 559.613281 122.9375 C 559.363281 122.9375 559.113281 122.847656 558.925781 122.65625 C 541.191406 105.125 520.332031 90.863281 496.925781 80.265625 C 496.429688 80.042969 496.210938 79.460938 496.433594 78.96875 C 496.660156 78.476562 497.242188 78.257812 497.734375 78.480469 C 521.355469 89.171875 542.40625 103.566406 560.304688 121.261719 C 560.6875 121.644531 560.691406 122.265625 560.3125 122.648438 C 560.117188 122.84375 559.867188 122.9375 559.613281 122.9375"/><path fill="#000" fill-opacity="1" fill-rule="nonzero" d="M 486.53125 75.796875 C 486.414062 75.796875 486.292969 75.777344 486.175781 75.730469 C 482.992188 74.480469 479.722656 73.285156 476.460938 72.171875 C 475.949219 71.996094 475.679688 71.441406 475.855469 70.929688 C 476.027344 70.414062 476.585938 70.140625 477.097656 70.316406 C 480.382812 71.4375 483.679688 72.644531 486.890625 73.90625 C 487.398438 74.101562 487.644531 74.667969 487.449219 75.175781 C 487.296875 75.5625 486.925781 75.796875 486.53125 75.796875"/><path fill="#000" fill-opacity="1" fill-rule="nonzero" d="M 120.90625 415.144531 C 120.519531 415.144531 120.152344 414.914062 119.996094 414.527344 C 108.378906 385.421875 103.390625 354.109375 105.167969 321.460938 C 106.910156 289.445312 115.054688 257.722656 129.375 227.171875 C 129.605469 226.683594 130.191406 226.472656 130.679688 226.703125 C 131.171875 226.933594 131.382812 227.515625 131.152344 228.003906 C 102.492188 289.140625 99.089844 356.863281 121.816406 413.800781 C 122.019531 414.304688 121.773438 414.875 121.273438 415.078125 C 121.152344 415.125 121.03125 415.144531 120.90625 415.144531"/><path fill="#000" fill-opacity="1" fill-rule="nonzero" d="M 585.316406 401.984375 C 585.144531 401.984375 584.972656 401.9375 584.816406 401.847656 C 584.34375 401.570312 584.183594 400.964844 584.460938 400.492188 C 586.429688 397.113281 588.351562 393.660156 590.167969 390.226562 C 590.417969 389.746094 591.019531 389.558594 591.503906 389.816406 C 591.984375 390.070312 592.171875 390.671875 591.914062 391.15625 C 590.089844 394.609375 588.15625 398.089844 586.171875 401.492188 C 585.988281 401.808594 585.65625 401.984375 585.316406 401.984375"/><path fill="#000" fill-opacity="1" fill-rule="nonzero" d="M 591.039062 391.671875 C 590.882812 391.671875 590.726562 391.632812 590.582031 391.558594 C 590.101562 391.304688 589.917969 390.710938 590.171875 390.234375 C 615.503906 342.300781 625.367188 288.722656 617.949219 239.363281 C 617.871094 238.828125 618.238281 238.328125 618.773438 238.25 C 619.308594 238.167969 619.808594 238.535156 619.886719 239.070312 C 623.648438 264.085938 623.113281 289.941406 618.308594 315.917969 C 613.53125 341.734375 604.644531 367.042969 591.90625 391.148438 C 591.730469 391.484375 591.390625 391.671875 591.039062 391.671875"/><path fill="#000" fill-opacity="1" fill-rule="nonzero" d="M 538.464844 121.355469 C 538.246094 121.355469 538.023438 121.285156 537.839844 121.132812 C 514.441406 101.773438 486.894531 88.214844 455.964844 80.832031 C 455.4375 80.703125 455.113281 80.175781 455.238281 79.648438 C 455.363281 79.121094 455.898438 78.796875 456.421875 78.921875 C 487.644531 86.378906 515.460938 100.070312 539.089844 119.621094 C 539.507812 119.964844 539.566406 120.585938 539.222656 121 C 539.027344 121.238281 538.75 121.355469 538.464844 121.355469"/><path fill="#000" fill-opacity="1" fill-rule="nonzero" d="M 151.96875 447.023438 C 151.652344 447.023438 151.34375 446.871094 151.152344 446.589844 C 114.019531 391.511719 107.601562 321.09375 133.546875 253.394531 C 133.742188 252.886719 134.308594 252.636719 134.8125 252.828125 C 135.320312 253.023438 135.570312 253.589844 135.378906 254.097656 C 109.664062 321.191406 116.003906 390.953125 152.777344 445.492188 C 153.082031 445.945312 152.960938 446.550781 152.515625 446.855469 C 152.347656 446.96875 152.15625 447.023438 151.96875 447.023438"/><path fill="#000" fill-opacity="1" fill-rule="nonzero" d="M 576.113281 373.460938 C 575.984375 373.460938 575.851562 373.433594 575.722656 373.375 C 575.222656 373.152344 575.003906 372.578125 575.222656 372.082031 C 591.097656 336.269531 597.910156 298.042969 594.90625 261.535156 C 594.863281 260.996094 595.261719 260.519531 595.804688 260.476562 C 596.347656 260.429688 596.816406 260.835938 596.859375 261.375 C 599.886719 298.210938 593.023438 336.765625 577.015625 372.875 C 576.851562 373.242188 576.492188 373.460938 576.113281 373.460938"/><path fill="#000" fill-opacity="1" fill-rule="nonzero" d="M 587.277344 378.132812 C 586.554688 378.132812 585.859375 378.359375 585.265625 378.789062 C 584.515625 379.328125 584.027344 380.125 583.875 381.035156 C 583.730469 381.945312 583.945312 382.855469 584.484375 383.605469 C 585.019531 384.351562 585.820312 384.84375 586.730469 384.992188 C 587.644531 385.140625 588.554688 384.925781 589.300781 384.386719 C 590.046875 383.847656 590.539062 383.046875 590.691406 382.136719 C 590.835938 381.226562 590.621094 380.3125 590.078125 379.566406 C 589.542969 378.816406 588.746094 378.328125 587.832031 378.179688 C 587.644531 378.148438 587.460938 378.132812 587.277344 378.132812 Z M 587.292969 387 C 587.003906 387 586.710938 386.976562 586.417969 386.929688 C 584.992188 386.699219 583.738281 385.925781 582.894531 384.753906 C 582.050781 383.578125 581.710938 382.148438 581.941406 380.722656 C 582.171875 379.292969 582.941406 378.042969 584.117188 377.199219 C 585.289062 376.351562 586.71875 376.011719 588.144531 376.242188 C 589.574219 376.476562 590.828125 377.25 591.667969 378.417969 C 592.515625 379.589844 592.851562 381.023438 592.625 382.453125 C 592.394531 383.875 591.625 385.128906 590.449219 385.976562 C 589.515625 386.648438 588.421875 387 587.292969 387"/><path fill="#000" fill-opacity="1" fill-rule="nonzero" d="M 584.246094 273.160156 L 584.015625 278.679688 L 588.636719 275.816406 C 587.582031 275.144531 585.980469 274.152344 584.246094 273.160156 Z M 582.960938 281.472656 C 582.789062 281.472656 582.621094 281.421875 582.46875 281.335938 C 582.152344 281.152344 581.96875 280.8125 581.984375 280.449219 L 582.355469 271.480469 C 582.367188 271.140625 582.554688 270.835938 582.847656 270.667969 C 583.140625 270.503906 583.503906 270.5 583.800781 270.660156 C 587.464844 272.664062 590.976562 274.992188 591.011719 275.019531 C 591.289062 275.199219 591.453125 275.515625 591.445312 275.851562 C 591.445312 276.183594 591.269531 276.492188 590.984375 276.667969 L 583.480469 281.320312 C 583.320312 281.421875 583.140625 281.472656 582.960938 281.472656"/><path fill="#000" fill-opacity="1" fill-rule="nonzero" d="M 586.144531 284.828125 C 586.902344 285.386719 587.492188 285.996094 588.035156 286.71875 C 588.566406 287.433594 589.011719 288.253906 589.242188 289.171875 C 589.359375 289.621094 589.4375 290.09375 589.453125 290.570312 C 589.449219 290.816406 589.46875 291.027344 589.429688 291.304688 L 589.363281 291.71875 L 589.246094 292.09375 C 588.902344 293.0625 588.375 293.746094 587.894531 294.425781 C 587.402344 295.097656 586.921875 295.722656 586.519531 296.363281 C 586.113281 296.992188 585.789062 297.636719 585.671875 298.257812 C 585.378906 299.328125 586.160156 300.730469 586.921875 302.148438 C 587.304688 302.867188 587.710938 303.609375 588.039062 304.449219 C 588.351562 305.277344 588.613281 306.253906 588.457031 307.320312 C 588.34375 307.921875 588.066406 308.449219 587.753906 308.832031 C 587.449219 309.226562 587.117188 309.542969 586.789062 309.835938 C 586.128906 310.410156 585.464844 310.890625 584.847656 311.382812 C 584.242188 311.863281 583.636719 312.367188 583.324219 312.867188 C 583.15625 313.117188 583.121094 313.296875 583.089844 313.585938 C 583.070312 313.859375 583.136719 314.179688 583.21875 314.503906 C 583.421875 315.164062 583.777344 315.847656 584.167969 316.554688 C 584.359375 316.90625 584.5625 317.265625 584.761719 317.65625 C 584.945312 318.054688 585.160156 318.457031 585.234375 319.070312 C 585.28125 319.472656 584.996094 319.839844 584.59375 319.886719 C 584.191406 319.9375 583.828125 319.65625 583.773438 319.261719 L 583.769531 319.21875 C 583.742188 319.019531 583.59375 318.675781 583.410156 318.355469 C 583.230469 318.027344 583.023438 317.6875 582.808594 317.339844 C 582.386719 316.636719 581.945312 315.894531 581.636719 315.011719 C 581.492188 314.5625 581.367188 314.082031 581.375 313.539062 C 581.382812 313.019531 581.554688 312.386719 581.839844 311.953125 C 582.394531 311.070312 583.078125 310.53125 583.714844 309.984375 C 584.359375 309.449219 585 308.964844 585.550781 308.457031 C 586.113281 307.960938 586.527344 307.398438 586.585938 307.027344 C 586.667969 306.472656 586.519531 305.808594 586.253906 305.136719 C 585.988281 304.460938 585.613281 303.777344 585.226562 303.066406 C 584.84375 302.355469 584.425781 301.625 584.089844 300.78125 C 583.925781 300.359375 583.769531 299.90625 583.703125 299.394531 L 583.652344 299.011719 L 583.652344 298.605469 C 583.648438 298.324219 583.714844 298.089844 583.757812 297.839844 C 583.972656 296.863281 584.425781 296.046875 584.894531 295.316406 C 585.375 294.589844 585.890625 293.9375 586.363281 293.296875 C 586.832031 292.667969 587.300781 292.035156 587.515625 291.472656 L 587.59375 291.265625 L 587.625 291.082031 C 587.65625 290.960938 587.644531 290.757812 587.660156 290.601562 C 587.660156 290.265625 587.613281 289.925781 587.546875 289.59375 C 587.25 288.265625 586.332031 286.949219 585.269531 286.011719 L 585.222656 285.972656 C 584.917969 285.699219 584.890625 285.238281 585.160156 284.933594 C 585.410156 284.648438 585.835938 284.609375 586.144531 284.828125"/><path fill="#000" fill-opacity="1" fill-rule="nonzero" d="M 145.164062 243.988281 L 145.167969 243.988281 Z M 140.789062 239.832031 C 139.125 239.832031 137.660156 241.035156 137.382812 242.730469 C 137.078125 244.605469 138.359375 246.382812 140.238281 246.691406 C 142.113281 246.992188 143.890625 245.710938 144.195312 243.832031 C 144.5 241.953125 143.21875 240.175781 141.339844 239.875 C 141.15625 239.84375 140.96875 239.832031 140.789062 239.832031 Z M 140.792969 248.695312 C 140.507812 248.695312 140.21875 248.671875 139.925781 248.625 C 136.980469 248.148438 134.972656 245.363281 135.449219 242.417969 C 135.925781 239.472656 138.710938 237.460938 141.652344 237.9375 C 144.597656 238.414062 146.605469 241.199219 146.132812 244.144531 C 145.703125 246.800781 143.398438 248.695312 140.792969 248.695312"/><path fill="#000" fill-opacity="1" fill-rule="nonzero" d="M 142.507812 228.777344 L 145.664062 233.3125 L 147.609375 228.234375 C 146.363281 228.34375 144.492188 228.515625 142.507812 228.777344 Z M 145.917969 236.371094 C 145.597656 236.371094 145.296875 236.21875 145.113281 235.953125 L 139.984375 228.585938 C 139.792969 228.308594 139.753906 227.953125 139.890625 227.640625 C 140.023438 227.328125 140.308594 227.109375 140.644531 227.058594 C 144.773438 226.433594 148.976562 226.164062 149.019531 226.164062 C 149.351562 226.140625 149.671875 226.292969 149.871094 226.558594 C 150.066406 226.828125 150.113281 227.179688 149.992188 227.492188 L 146.832031 235.742188 C 146.703125 236.082031 146.394531 236.320312 146.035156 236.367188 C 145.996094 236.367188 145.957031 236.371094 145.917969 236.371094"/><path fill="#000" fill-opacity="1" fill-rule="nonzero" d="M 383.078125 64.296875 C 382.640625 65.132812 382.128906 65.808594 381.492188 66.457031 C 380.867188 67.089844 380.121094 67.652344 379.261719 68.027344 C 378.828125 68.210938 378.375 68.351562 377.910156 68.441406 C 377.660156 68.472656 377.457031 68.527344 377.179688 68.53125 L 376.757812 68.527344 L 376.367188 68.46875 C 375.355469 68.277344 374.601562 67.855469 373.859375 67.484375 C 373.121094 67.101562 372.429688 66.71875 371.742188 66.417969 C 371.054688 66.113281 370.367188 65.894531 369.738281 65.867188 C 368.636719 65.738281 367.367188 66.730469 366.082031 67.695312 C 365.429688 68.1875 364.757812 68.699219 363.976562 69.144531 C 363.203125 69.585938 362.28125 69.988281 361.207031 69.992188 C 360.59375 69.976562 360.027344 69.78125 359.609375 69.535156 C 359.171875 69.292969 358.804688 69.011719 358.46875 68.730469 C 357.800781 68.167969 357.222656 67.582031 356.644531 67.046875 C 356.078125 66.519531 355.484375 65.996094 354.945312 65.765625 C 354.671875 65.636719 354.492188 65.628906 354.203125 65.640625 C 353.925781 65.664062 353.621094 65.773438 353.3125 65.910156 C 352.6875 66.207031 352.066406 66.664062 351.429688 67.15625 C 351.113281 67.402344 350.785156 67.65625 350.425781 67.910156 C 350.066406 68.15625 349.699219 68.425781 349.105469 68.59375 C 348.714844 68.703125 348.308594 68.472656 348.203125 68.082031 C 348.089844 67.695312 348.3125 67.292969 348.695312 67.179688 L 348.738281 67.167969 C 348.929688 67.109375 349.246094 66.90625 349.535156 66.679688 C 349.835938 66.453125 350.136719 66.195312 350.453125 65.933594 C 351.078125 65.410156 351.746094 64.859375 352.570312 64.417969 C 352.996094 64.210938 353.449219 64.015625 353.988281 63.941406 C 354.5 63.867188 355.152344 63.941406 355.621094 64.15625 C 356.582031 64.570312 357.214844 65.167969 357.851562 65.714844 C 358.476562 66.273438 359.054688 66.828125 359.640625 67.296875 C 360.214844 67.777344 360.835938 68.101562 361.210938 68.105469 C 361.773438 68.097656 362.398438 67.855469 363.027344 67.488281 C 363.652344 67.125 364.277344 66.652344 364.917969 66.160156 C 365.5625 65.671875 366.222656 65.148438 367.003906 64.6875 C 367.402344 64.460938 367.816406 64.242188 368.3125 64.09375 L 368.683594 63.984375 L 369.089844 63.929688 C 369.367188 63.878906 369.605469 63.910156 369.855469 63.914062 C 370.859375 63.976562 371.730469 64.300781 372.523438 64.65625 C 373.316406 65.019531 374.042969 65.429688 374.742188 65.804688 C 375.4375 66.167969 376.132812 66.535156 376.722656 66.667969 L 376.9375 66.707031 L 377.125 66.714844 C 377.246094 66.726562 377.441406 66.679688 377.601562 66.675781 C 377.933594 66.621094 378.257812 66.53125 378.582031 66.40625 C 379.851562 65.914062 381.007812 64.804688 381.777344 63.613281 L 381.808594 63.5625 C 382.027344 63.21875 382.480469 63.121094 382.824219 63.34375 C 383.144531 63.546875 383.246094 63.964844 383.078125 64.296875"/><path fill="#000" fill-opacity="1" fill-rule="nonzero" d="M 573.273438 129.6875 L 573.28125 129.6875 Z M 568.898438 125.527344 C 567.238281 125.527344 565.765625 126.738281 565.496094 128.429688 C 565.347656 129.339844 565.566406 130.253906 566.101562 131 C 566.644531 131.75 567.441406 132.238281 568.347656 132.390625 C 570.226562 132.691406 572 131.410156 572.304688 129.53125 C 572.609375 127.652344 571.328125 125.878906 569.453125 125.574219 C 569.261719 125.542969 569.082031 125.527344 568.898438 125.527344 Z M 568.902344 134.394531 C 568.617188 134.394531 568.332031 134.375 568.035156 134.324219 C 566.609375 134.09375 565.363281 133.324219 564.515625 132.148438 C 563.667969 130.976562 563.328125 129.542969 563.558594 128.117188 C 564.039062 125.167969 566.816406 123.160156 569.765625 123.636719 C 572.710938 124.113281 574.71875 126.902344 574.242188 129.847656 C 573.8125 132.5 571.511719 134.394531 568.902344 134.394531"/><path fill="#000" fill-opacity="1" fill-rule="nonzero" d="M 604.046875 194.015625 L 607.199219 198.550781 L 609.152344 193.472656 C 607.902344 193.574219 606.03125 193.753906 604.046875 194.015625 Z M 607.453125 201.605469 C 607.136719 201.605469 606.832031 201.449219 606.652344 201.1875 L 601.523438 193.824219 C 601.332031 193.542969 601.292969 193.191406 601.429688 192.875 C 601.5625 192.5625 601.84375 192.34375 602.179688 192.296875 C 606.308594 191.667969 610.515625 191.402344 610.554688 191.398438 C 610.890625 191.378906 611.210938 191.527344 611.40625 191.796875 C 611.605469 192.0625 611.65625 192.417969 611.53125 192.726562 L 608.371094 200.976562 C 608.242188 201.316406 607.933594 201.554688 607.574219 201.597656 C 607.535156 201.601562 607.496094 201.605469 607.453125 201.605469"/><path fill="#000" fill-opacity="1" fill-rule="nonzero" d="M 513.699219 76.003906 C 514.550781 75.605469 515.371094 75.382812 516.269531 75.261719 C 517.152344 75.140625 518.085938 75.144531 518.996094 75.382812 C 519.449219 75.5 519.898438 75.660156 520.320312 75.878906 C 520.53125 76.003906 520.726562 76.082031 520.953125 76.25 L 521.285156 76.511719 L 521.558594 76.796875 C 522.238281 77.5625 522.578125 78.355469 522.941406 79.105469 C 523.292969 79.859375 523.609375 80.582031 523.96875 81.246094 C 524.332031 81.90625 524.738281 82.5 525.222656 82.90625 C 526.015625 83.675781 527.625 83.667969 529.230469 83.6875 C 530.042969 83.695312 530.890625 83.703125 531.78125 83.824219 C 532.660156 83.949219 533.644531 84.191406 534.496094 84.84375 C 534.972656 85.230469 535.300781 85.734375 535.484375 86.1875 C 535.683594 86.644531 535.800781 87.089844 535.894531 87.515625 C 536.082031 88.375 536.179688 89.1875 536.308594 89.964844 C 536.441406 90.730469 536.589844 91.5 536.875 92.019531 C 537.015625 92.285156 537.15625 92.402344 537.390625 92.570312 C 537.621094 92.722656 537.929688 92.820312 538.257812 92.902344 C 538.933594 93.039062 539.703125 93.0625 540.511719 93.058594 C 540.910156 93.058594 541.328125 93.054688 541.761719 93.074219 C 542.199219 93.101562 542.65625 93.109375 543.230469 93.34375 C 543.605469 93.496094 543.785156 93.925781 543.636719 94.300781 C 543.484375 94.671875 543.0625 94.855469 542.6875 94.710938 L 542.652344 94.695312 C 542.464844 94.625 542.089844 94.589844 541.722656 94.59375 C 541.34375 94.59375 540.949219 94.613281 540.539062 94.628906 C 539.722656 94.660156 538.859375 94.6875 537.933594 94.535156 C 537.476562 94.441406 536.992188 94.320312 536.523438 94.046875 C 536.074219 93.792969 535.597656 93.335938 535.359375 92.878906 C 534.855469 91.960938 534.714844 91.105469 534.542969 90.28125 C 534.386719 89.457031 534.269531 88.664062 534.09375 87.933594 C 533.929688 87.207031 533.636719 86.570312 533.34375 86.339844 C 532.890625 86 532.246094 85.808594 531.527344 85.714844 C 530.808594 85.625 530.027344 85.617188 529.222656 85.617188 C 528.40625 85.609375 527.570312 85.617188 526.667969 85.507812 C 526.214844 85.445312 525.75 85.367188 525.269531 85.179688 L 524.90625 85.042969 L 524.554688 84.839844 C 524.300781 84.707031 524.132812 84.535156 523.933594 84.378906 C 523.179688 83.71875 522.683594 82.929688 522.277344 82.164062 C 521.867188 81.394531 521.542969 80.625 521.21875 79.898438 C 520.890625 79.1875 520.5625 78.46875 520.175781 78.011719 L 520.03125 77.84375 L 519.886719 77.726562 C 519.796875 77.640625 519.617188 77.554688 519.484375 77.464844 C 519.191406 77.304688 518.875 77.175781 518.546875 77.074219 C 517.242188 76.691406 515.644531 76.867188 514.308594 77.339844 L 514.25 77.363281 C 513.867188 77.5 513.453125 77.300781 513.3125 76.917969 C 513.183594 76.554688 513.355469 76.164062 513.699219 76.003906"/></svg>