<svg xmlns="http://www.w3.org/2000/svg" xmlns:xlink="http://www.w3.org/1999/xlink" width="500" zoomAndPan="magnify" viewBox="0 0 375 374.999991" height="500" preserveAspectRatio="xMidYMid meet" version="1.0"><defs><clipPath id="37dd0ce2bc"><path d="M 6.195312 6.195312 L 368.445312 6.195312 L 368.445312 368.445312 L 6.195312 368.445312 Z M 6.195312 6.195312 " clip-rule="nonzero"/></clipPath></defs><g clip-path="url(#37dd0ce2bc)"><path fill="#5c7cfa" d="M 315.394531 59.246094 C 281.1875 25.035156 235.699219 6.195312 187.320312 6.195312 C 138.9375 6.195312 93.453125 25.035156 59.246094 59.246094 C 25.035156 93.453125 6.195312 138.9375 6.195312 187.320312 C 6.195312 208.144531 9.699219 228.5625 16.613281 248.007812 C 23.296875 266.800781 33.003906 284.277344 45.46875 299.957031 C 70.402344 331.3125 105.441406 353.792969 144.128906 363.261719 C 145.730469 363.652344 147.417969 363.289062 148.710938 362.273438 C 150.007812 361.257812 150.761719 359.703125 150.761719 358.054688 L 150.761719 198.125 C 150.761719 195.164062 148.363281 192.765625 145.402344 192.765625 L 90.132812 192.765625 C 87.171875 192.765625 84.773438 195.164062 84.773438 198.125 C 84.773438 201.085938 87.171875 203.484375 90.132812 203.484375 L 140.042969 203.484375 L 140.042969 351.089844 C 67.199219 330.175781 16.910156 263.789062 16.910156 187.320312 C 16.910156 93.355469 93.355469 16.914062 187.320312 16.914062 C 281.285156 16.914062 357.726562 93.355469 357.726562 187.320312 C 357.726562 263.789062 307.4375 330.175781 234.59375 351.089844 L 234.59375 203.484375 L 284.507812 203.484375 C 287.46875 203.484375 289.863281 201.085938 289.863281 198.125 C 289.863281 195.164062 287.46875 192.765625 284.507812 192.765625 L 229.234375 192.765625 C 226.273438 192.765625 223.878906 195.164062 223.878906 198.125 L 223.878906 358.054688 C 223.878906 359.703125 224.632812 361.257812 225.925781 362.273438 C 226.882812 363.023438 228.046875 363.417969 229.234375 363.417969 C 229.660156 363.417969 230.085938 363.367188 230.511719 363.261719 C 269.199219 353.792969 304.234375 331.3125 329.167969 299.957031 C 341.632812 284.277344 351.34375 266.800781 358.027344 248.007812 C 364.9375 228.5625 368.445312 208.144531 368.445312 187.320312 C 368.445312 138.9375 349.601562 93.453125 315.394531 59.246094 Z M 90.132812 149.277344 C 87.171875 149.277344 84.773438 151.675781 84.773438 154.636719 C 84.773438 157.597656 87.171875 159.996094 90.132812 159.996094 L 145.402344 159.996094 C 148.363281 159.996094 150.761719 157.597656 150.761719 154.636719 C 150.761719 151.675781 148.363281 149.277344 145.402344 149.277344 Z M 284.507812 159.996094 L 192.675781 159.996094 L 192.675781 363.085938 C 192.675781 366.046875 190.28125 368.445312 187.320312 368.445312 C 184.359375 368.445312 181.960938 366.046875 181.960938 363.085938 L 181.960938 154.636719 C 181.960938 151.675781 184.359375 149.277344 187.320312 149.277344 L 284.507812 149.277344 C 287.46875 149.277344 289.863281 151.675781 289.863281 154.636719 C 289.863281 157.597656 287.46875 159.996094 284.507812 159.996094 " fill-opacity="1" fill-rule="nonzero"/></g></svg>